# xmcd CD database file
#
# Track frame offsets:
#	150
#	17725
#	38107
#	65985
#	82592
#	99045
#	117352
#	132807
#	146012
#	164020
#
# Disc length: 2549 seconds
#
# Revision: 0
# Processed by: cddbd v1.5.1PL0 Copyright (c) Steve Scherf et al.
# Submitted via: CDex 1.51
#
DISCID=7f09f30a
DTITLE=Rosie and The Rebels - Going On The Road
DYEAR=1997
DGENRE=Country
TTITLE0=The Rebel Song
TTITLE1=Crimes Of The Mind
TTITLE2=I Feel
TTITLE3=Labor Of Love
TTITLE4=Early In The Morning
TTITLE5=In The Light
TTITLE6=Roses For Ruby
TTITLE7=Going On The Road
TTITLE8=Come On
TTITLE9=Carry Me
EXTD=YEAR: 1997
EXTT0=
EXTT1=
EXTT2=
EXTT3=
EXTT4=
EXTT5=
EXTT6=
EXTT7=
EXTT8=
EXTT9=
PLAYORDER=
